<svg width="29" height="33" viewBox="0 0 29 33" fill="none" xmlns="http://www.w3.org/2000/svg">
<g filter="url(#filter0_d_2001_25)">
<path d="M7 24.25C6.64583 24.25 6.34896 24.1302 6.10938 23.8906C5.86979 23.651 5.75 23.3542 5.75 23V20.4375C5.375 20.0208 5.07292 19.5573 4.84375 19.0469C4.61458 18.5365 4.5 17.9792 4.5 17.375V5.5C4.5 3.77083 5.30208 2.50521 6.90625 1.70312C8.51042 0.901042 11.0417 0.5 14.5 0.5C18.0833 0.5 20.6458 0.885417 22.1875 1.65625C23.7292 2.42708 24.5 3.70833 24.5 5.5V17.375C24.5 17.9792 24.3854 18.5365 24.1562 19.0469C23.9271 19.5573 23.625 20.0208 23.25 20.4375V23C23.25 23.3542 23.1302 23.651 22.8906 23.8906C22.651 24.1302 22.3542 24.25 22 24.25H20.75C20.3958 24.25 20.099 24.1302 19.8594 23.8906C19.6198 23.651 19.5 23.3542 19.5 23V21.75H9.5V23C9.5 23.3542 9.38021 23.651 9.14062 23.8906C8.90104 24.1302 8.60417 24.25 8.25 24.25H7V24.25M14.5625 4.25C16.8542 4.25 18.5156 4.25 19.5469 4.25C20.5781 4.25 21.25 4.25 21.5625 4.25H7.5625C7.9375 4.25 8.64062 4.25 9.67188 4.25C10.7031 4.25 12.3333 4.25 14.5625 4.25V4.25M19.5 13H9.5C8.8125 13 8.22396 13 7.73438 13C7.24479 13 7 13 7 13V13H22V13C22 13 21.7552 13 21.2656 13C20.776 13 20.1875 13 19.5 13V13M7 10.5H22V6.75H7V10.5V10.5M10.125 18C10.6458 18 11.0885 17.8177 11.4531 17.4531C11.8177 17.0885 12 16.6458 12 16.125C12 15.6042 11.8177 15.1615 11.4531 14.7969C11.0885 14.4323 10.6458 14.25 10.125 14.25C9.60417 14.25 9.16146 14.4323 8.79688 14.7969C8.43229 15.1615 8.25 15.6042 8.25 16.125C8.25 16.6458 8.43229 17.0885 8.79688 17.4531C9.16146 17.8177 9.60417 18 10.125 18V18M18.875 18C19.3958 18 19.8385 17.8177 20.2031 17.4531C20.5677 17.0885 20.75 16.6458 20.75 16.125C20.75 15.6042 20.5677 15.1615 20.2031 14.7969C19.8385 14.4323 19.3958 14.25 18.875 14.25C18.3542 14.25 17.9115 14.4323 17.5469 14.7969C17.1823 15.1615 17 15.6042 17 16.125C17 16.6458 17.1823 17.0885 17.5469 17.4531C17.9115 17.8177 18.3542 18 18.875 18V18M7.5625 4.25H21.5625C21.25 3.89583 20.5781 3.59896 19.5469 3.35938C18.5156 3.11979 16.8542 3 14.5625 3C12.3333 3 10.7031 3.13021 9.67188 3.39062C8.64062 3.65104 7.9375 3.9375 7.5625 4.25V4.25M9.5 19.25H19.5C20.1875 19.25 20.776 19.0052 21.2656 18.5156C21.7552 18.026 22 17.4375 22 16.75V13H7V16.75C7 17.4375 7.24479 18.026 7.73438 18.5156C8.22396 19.0052 8.8125 19.25 9.5 19.25V19.25" fill="#137FEC"/>
<path d="M7 24.25C6.64583 24.25 6.34896 24.1302 6.10938 23.8906C5.86979 23.651 5.75 23.3542 5.75 23V20.4375C5.375 20.0208 5.07292 19.5573 4.84375 19.0469C4.61458 18.5365 4.5 17.9792 4.5 17.375V5.5C4.5 3.77083 5.30208 2.50521 6.90625 1.70312C8.51042 0.901042 11.0417 0.5 14.5 0.5C18.0833 0.5 20.6458 0.885417 22.1875 1.65625C23.7292 2.42708 24.5 3.70833 24.5 5.5V17.375C24.5 17.9792 24.3854 18.5365 24.1562 19.0469C23.9271 19.5573 23.625 20.0208 23.25 20.4375V23C23.25 23.3542 23.1302 23.651 22.8906 23.8906C22.651 24.1302 22.3542 24.25 22 24.25H20.75C20.3958 24.25 20.099 24.1302 19.8594 23.8906C19.6198 23.651 19.5 23.3542 19.5 23V21.75H9.5V23C9.5 23.3542 9.38021 23.651 9.14062 23.8906C8.90104 24.1302 8.60417 24.25 8.25 24.25H7V24.25M14.5625 4.25C16.8542 4.25 18.5156 4.25 19.5469 4.25C20.5781 4.25 21.25 4.25 21.5625 4.25H7.5625C7.9375 4.25 8.64062 4.25 9.67188 4.25C10.7031 4.25 12.3333 4.25 14.5625 4.25V4.25M19.5 13H9.5C8.8125 13 8.22396 13 7.73438 13C7.24479 13 7 13 7 13V13H22V13C22 13 21.7552 13 21.2656 13C20.776 13 20.1875 13 19.5 13V13M7 10.5H22V6.75H7V10.5V10.5M10.125 18C10.6458 18 11.0885 17.8177 11.4531 17.4531C11.8177 17.0885 12 16.6458 12 16.125C12 15.6042 11.8177 15.1615 11.4531 14.7969C11.0885 14.4323 10.6458 14.25 10.125 14.25C9.60417 14.25 9.16146 14.4323 8.79688 14.7969C8.43229 15.1615 8.25 15.6042 8.25 16.125C8.25 16.6458 8.43229 17.0885 8.79688 17.4531C9.16146 17.8177 9.60417 18 10.125 18V18M18.875 18C19.3958 18 19.8385 17.8177 20.2031 17.4531C20.5677 17.0885 20.75 16.6458 20.75 16.125C20.75 15.6042 20.5677 15.1615 20.2031 14.7969C19.8385 14.4323 19.3958 14.25 18.875 14.25C18.3542 14.25 17.9115 14.4323 17.5469 14.7969C17.1823 15.1615 17 15.6042 17 16.125C17 16.6458 17.1823 17.0885 17.5469 17.4531C17.9115 17.8177 18.3542 18 18.875 18V18M7.5625 4.25H21.5625C21.25 3.89583 20.5781 3.59896 19.5469 3.35938C18.5156 3.11979 16.8542 3 14.5625 3C12.3333 3 10.7031 3.13021 9.67188 3.39062C8.64062 3.65104 7.9375 3.9375 7.5625 4.25V4.25M9.5 19.25H19.5C20.1875 19.25 20.776 19.0052 21.2656 18.5156C21.7552 18.026 22 17.4375 22 16.75V13H7V16.75C7 17.4375 7.24479 18.026 7.73438 18.5156C8.22396 19.0052 8.8125 19.25 9.5 19.25V19.25" stroke="black" stroke-linejoin="bevel"/>
</g>
<defs>
<filter id="filter0_d_2001_25" x="0" y="0" width="29" height="32.75" filterUnits="userSpaceOnUse" color-interpolation-filters="sRGB">
<feFlood flood-opacity="0" result="BackgroundImageFix"/>
<feColorMatrix in="SourceAlpha" type="matrix" values="0 0 0 0 0 0 0 0 0 0 0 0 0 0 0 0 0 0 127 0" result="hardAlpha"/>
<feOffset dy="4"/>
<feGaussianBlur stdDeviation="2"/>
<feComposite in2="hardAlpha" operator="out"/>
<feColorMatrix type="matrix" values="0 0 0 0 0 0 0 0 0 0 0 0 0 0 0 0 0 0 0.25 0"/>
<feBlend mode="normal" in2="BackgroundImageFix" result="effect1_dropShadow_2001_25"/>
<feBlend mode="normal" in="SourceGraphic" in2="effect1_dropShadow_2001_25" result="shape"/>
</filter>
</defs>
</svg>
